:FULLY-SPECIFIED
:FORCE-ALL-JOINTS-BE-3DOF
:DEGREES
611
root 5.74524 16.7688 -3.85521 -4.45271 44.9164 -12.6825
lfemur -16.7512 24.6871 -23.7308
ltibia 37.9359 0 0
lfoot -35.5112 26.3295 0
ltoes 27.0593 0 0
rfemur -53.4418 -18.1241 24.4797
rtibia 69.4654 0 0
rfoot 10.8046 28.1056 0
rtoes -10.8614 0 0
lowerback 3.10362 -3.59529 -3.86683
upperback -0.352053 -4.90839 1.40886
thorax -1.65212 -2.40898 3.80698
lowerneck -9.17838 -8.41408 0.13029
upperneck 15.2218 -11.9045 2.77743
head 6.30774 -5.52585 -0.112773
lclavicle 1.02442e-13 1.25722e-14 0
lhumerus -23.1297 -43.9494 95.6785
lradius 59.5806 0 0
lwrist 20.377 0 0
lhand -11.7324 -1.10911 0
lfingers 7.12502 0 0
lthumb 14.3143 28.3679 0
rclavicle 1.02442e-13 1.25722e-14 0
rhumerus 20.5945 2.32995 -71.0779
rradius 112.172 0 0
rwrist -58.1765 0 0
rhand -29.2948 -26.0661 0
rfingers 7.12502 0 0
rthumb -2.63635 -776.028 0
612
root 5.72492 16.7752 -3.85927 -2.02029 44.4735 -10.2681
lfemur -16.7429 25.0999 -23.7985
ltibia 37.8229 0 0
lfoot -35.5537 26.5811 0
ltoes 27.3751 0 0
rfemur -53.4685 -18.2145 24.6429
rtibia 69.8296 0 0
rfoot 10.8211 28.4565 0
rtoes -10.5449 0 0
lowerback 3.04565 -3.63852 -3.89337
upperback -0.394328 -4.96833 1.37584
thorax -1.65796 -2.43869 3.7892
lowerneck -9.23706 -8.33761 0.193427
upperneck 15.2975 -11.8087 2.74183
head 6.33088 -5.47593 -0.130284
lclavicle 1.03874e-13 1.29018e-14 0
lhumerus -22.8552 -44.3609 95.7009
lradius 59.6432 0 0
lwrist 20.3493 0 0
lhand -11.5895 -1.05988 0
lfingers 7.12502 0 0
lthumb 14.4523 28.4106 0
rclavicle 1.03874e-13 1.29018e-14 0
rhumerus 20.4767 2.13371 -71.0353
rradius 111.847 0 0
rwrist -58.3637 0 0
rhand -29.3435 -26.1332 0
rfingers 7.12502 0 0
rthumb -2.68337 -776.095 0
613
root 5.70868 16.7803 -3.86251 -0.0768292 44.1196 -8.33906
lfemur -16.7363 25.4298 -23.8525
ltibia 37.7327 0 0
lfoot -35.5875 26.7822 0
ltoes 27.6275 0 0
rfemur -53.4897 -18.2866 24.7733
rtibia 70.1206 0 0
rfoot 10.8343 28.7369 0
rtoes -10.292 0 0
lowerback 2.99933 -3.67305 -3.91457
upperback -0.428106 -5.01621 1.34946
thorax -1.66262 -2.46243 3.77499
lowerneck -9.28394 -8.2765 0.243872
upperneck 15.358 -11.7322 2.71338
head 6.34936 -5.43605 -0.144276
lclavicle 1.05018e-13 1.31651e-14 0
lhumerus -22.6359 -44.6896 95.7188
lradius 59.6931 0 0
lwrist 20.3271 0 0
lhand -11.4752 -1.02055 0
lfingers 7.12502 0 0
lthumb 14.5625 28.4446 0
rclavicle 1.05018e-13 1.31651e-14 0
rhumerus 20.3825 1.97692 -71.0014
rradius 111.589 0 0
rwrist -58.5132 0 0
rhand -29.3824 -26.1867 0
rfingers 7.12502 0 0
rthumb -2.72094 -776.149 0
614
root 5.69678 16.784 -3.86489 1.34805 43.8601 -6.92474
lfemur -16.7315 25.6716 -23.8922
ltibia 37.6665 0 0
lfoot -35.6124 26.9297 0
ltoes 27.8125 0 0
rfemur -53.5053 -18.3395 24.8688
rtibia 70.334 0 0
rfoot 10.8439 28.9424 0
rtoes -10.1065 0 0
lowerback 2.96537 -3.69837 -3.93011
upperback -0.45287 -5.05132 1.33012
thorax -1.66603 -2.47984 3.76457
lowerneck -9.31831 -8.23171 0.280857
upperneck 15.4024 -11.6761 2.69253
head 6.36292 -5.4068 -0.154534
lclavicle 1.05857e-13 1.33581e-14 0
lhumerus -22.4751 -44.9306 95.7319
lradius 59.7298 0 0
lwrist 20.3109 0 0
lhand -11.3915 -0.991717 0
lfingers 7.12502 0 0
lthumb 14.6432 28.4696 0
rclavicle 1.05857e-13 1.33581e-14 0
rhumerus 20.3135 1.86197 -70.9765
rradius 111.399 0 0
rwrist -58.6228 0 0
rhand -29.4109 -26.226 0
rfingers 7.12502 0 0
rthumb -2.74849 -776.188 0
615
root 5.68946 16.7863 -3.86635 2.22471 43.7005 -6.05458
lfemur -16.7285 25.8204 -23.9166
ltibia 37.6258 0 0
lfoot -35.6277 27.0204 0
ltoes 27.9263 0 0
rfemur -53.5149 -18.3721 24.9277
rtibia 70.4653 0 0
rfoot 10.8499 29.0689 0
rtoes -9.99246 0 0
lowerback 2.94447 -3.71395 -3.93967
upperback -0.468107 -5.07292 1.31822
thorax -1.66813 -2.49055 3.75816
lowerneck -9.33946 -8.20414 0.303612
upperneck 15.4297 -11.6416 2.67969
head 6.37126 -5.38881 -0.160846
lclavicle 1.06373e-13 1.34769e-14 0
lhumerus -22.3762 -45.0789 95.74
lradius 59.7523 0 0
lwrist 20.3009 0 0
lhand -11.34 -0.973975 0
lfingers 7.12502 0 0
lthumb 14.693 28.485 0
rclavicle 1.06373e-13 1.34769e-14 0
rhumerus 20.2711 1.79125 -70.9611
rradius 111.282 0 0
rwrist -58.6902 0 0
rhand -29.4284 -26.2502 0
rfingers 7.12502 0 0
rthumb -2.76543 -776.212 0
616
root 5.68696 16.7871 -3.86685 2.52351 43.6461 -5.75799
lfemur -16.7275 25.8711 -23.9249
ltibia 37.6119 0 0
lfoot -35.6329 27.0513 0
ltoes 27.9651 0 0
rfemur -53.5182 -18.3832 24.9477
rtibia 70.51 0 0
rfoot 10.8519 29.112 0
rtoes -9.95358 0 0
lowerback 2.93735 -3.71926 -3.94293
upperback -0.4733 -5.08028 1.31416
thorax -1.66885 -2.4942 3.75597
lowerneck -9.34667 -8.19475 0.311368
upperneck 15.439 -11.6298 2.67532
head 6.3741 -5.38268 -0.162997
lclavicle 1.06549e-13 1.35174e-14 0
lhumerus -22.3425 -45.1294 95.7427
lradius 59.76 0 0
lwrist 20.2975 0 0
lhand -11.3224 -0.967928 0
lfingers 7.12502 0 0
lthumb 14.7099 28.4902 0
rclavicle 1.06549e-13 1.35174e-14 0
rhumerus 20.2566 1.76714 -70.9559
rradius 111.242 0 0
rwrist -58.7132 0 0
rhand -29.4344 -26.2584 0
rfingers 7.12502 0 0
rthumb -2.77121 -776.22 0
617
root 5.68666 16.7859 -3.86342 2.54976 43.5707 -5.74388
lfemur -16.7224 25.8682 -23.9377
ltibia 37.6083 0 0
lfoot -35.6385 27.0326 0
ltoes 27.946 0 0
rfemur -53.5363 -18.4062 24.9732
rtibia 70.5092 0 0
rfoot 10.8142 29.0435 0
rtoes -9.92297 0 0
lowerback 2.93191 -3.72109 -3.94752
upperback -0.475245 -5.08261 1.31045
thorax -1.66754 -2.49533 3.75434
lowerneck -9.34772 -8.19181 0.309588
upperneck 15.4155 -11.6251 2.68178
head 6.36776 -5.3807 -0.159761
lclavicle 1.06499e-13 1.34518e-14 0
lhumerus -22.3774 -45.1775 95.7963
lradius 59.7862 0 0
lwrist 20.3067 0 0
lhand -11.3093 -0.959542 0
lfingers 7.12502 0 0
lthumb 14.7225 28.4974 0
rclavicle 1.06499e-13 1.34518e-14 0
rhumerus 20.1381 1.74587 -70.9583
rradius 111.147 0 0
rwrist -58.6401 0 0
rhand -29.4343 -26.3024 0
rfingers 7.12502 0 0
rthumb -2.77113 -776.264 0
